<?xml version="1.0" encoding="UTF-8"?><svg xmlns="http://www.w3.org/2000/svg" xmlns:xlink="http://www.w3.org/1999/xlink" width="5184pt" zoomAndPan="magnify" viewBox="0 0 5184 2592.000001" height="2592.000001pt" preserveAspectRatio="xMidYMid meet" version="1.2"><defs><g/><clipPath xml:id="clip1" id="clip1"><path d="M 3131 1955 L 4468 1955 L 4468 2591 L 3131 2591 Z M 3131 1955 "/></clipPath></defs><g xml:id="surface1" id="surface1"><path style=" stroke:none;fill-rule:nonzero;fill:rgb(100%,100%,100%);fill-opacity:1;" d="M 1 0 L 5183 0 L 5183 2591 L 1 2591 Z M 1 0 "/><path style=" stroke:none;fill-rule:nonzero;fill:rgb(59.609985%,75.289917%,76.858521%);fill-opacity:1;" d="M 1 0 L 5183 0 L 5183 2591 L 1 2591 Z M 1 0 "/><path style=" stroke:none;fill-rule:nonzero;fill:rgb(46.669006%,37.649536%,51.759338%);fill-opacity:1;" d="M 3212.882812 943.046875 L 4386.175781 943.046875 L 4386.175781 1647.773438 L 3212.882812 1647.773438 Z M 3212.882812 943.046875 "/><path style=" stroke:none;fill-rule:nonzero;fill:rgb(46.669006%,37.649536%,51.759338%);fill-opacity:1;" d="M 1354.332031 797.773438 C 1343.457031 797.773438 1332.585938 798.042969 1321.722656 798.574219 C 1310.855469 799.109375 1300.011719 799.910156 1289.1875 800.976562 C 1278.363281 802.042969 1267.570312 803.371094 1256.8125 804.96875 C 1246.054688 806.5625 1235.339844 808.421875 1224.671875 810.546875 C 1214.003906 812.667969 1203.394531 815.050781 1192.84375 817.691406 C 1182.292969 820.335938 1171.8125 823.234375 1161.402344 826.394531 C 1150.996094 829.550781 1140.671875 832.960938 1130.429688 836.625 C 1120.1875 840.289062 1110.042969 844.203125 1099.992188 848.367188 C 1089.945312 852.527344 1080.003906 856.933594 1070.171875 861.585938 C 1060.339844 866.234375 1050.625 871.125 1041.035156 876.253906 C 1031.441406 881.378906 1021.980469 886.738281 1012.648438 892.332031 C 1003.320312 897.921875 994.132812 903.742188 985.089844 909.78125 C 976.046875 915.824219 967.15625 922.085938 958.417969 928.566406 C 949.683594 935.046875 941.109375 941.734375 932.703125 948.636719 C 924.292969 955.535156 916.0625 962.640625 908 969.945312 C 899.941406 977.246094 892.066406 984.746094 884.375 992.4375 C 876.683594 1000.128906 869.1875 1008.003906 861.882812 1016.0625 C 854.578125 1024.121094 847.476562 1032.355469 840.574219 1040.765625 C 833.675781 1049.171875 826.984375 1057.742188 820.503906 1066.480469 C 814.027344 1075.21875 807.765625 1084.105469 801.722656 1093.152344 C 795.679688 1102.195312 789.863281 1111.382812 784.269531 1120.710938 C 778.679688 1130.039062 773.320312 1139.5 768.191406 1149.09375 C 763.0625 1158.6875 758.175781 1168.398438 753.523438 1178.230469 C 748.875 1188.066406 744.46875 1198.003906 740.304688 1208.054688 C 736.140625 1218.105469 732.230469 1228.25 728.566406 1238.488281 C 724.898438 1248.730469 721.488281 1259.054688 718.332031 1269.464844 C 715.175781 1279.875 712.273438 1290.351562 709.632812 1300.902344 C 706.988281 1311.457031 704.605469 1322.066406 702.484375 1332.734375 C 700.363281 1343.402344 698.503906 1354.113281 696.90625 1364.875 C 695.3125 1375.632812 693.980469 1386.425781 692.914062 1397.25 C 691.847656 1408.074219 691.046875 1418.917969 690.515625 1429.78125 C 689.980469 1440.644531 689.714844 1451.515625 689.714844 1462.394531 C 689.714844 1473.269531 689.980469 1484.140625 690.515625 1495.003906 C 691.046875 1505.867188 691.847656 1516.710938 692.914062 1527.539062 C 693.980469 1538.363281 695.3125 1549.152344 696.90625 1559.914062 C 698.503906 1570.671875 700.363281 1581.386719 702.484375 1592.054688 C 704.605469 1602.722656 706.988281 1613.332031 709.632812 1623.882812 C 712.273438 1634.433594 715.175781 1644.914062 718.332031 1655.320312 C 721.488281 1665.730469 724.898438 1676.054688 728.566406 1686.296875 C 732.230469 1696.539062 736.140625 1706.683594 740.304688 1716.730469 C 744.46875 1726.78125 748.875 1736.722656 753.523438 1746.554688 C 758.175781 1756.386719 763.0625 1766.097656 768.191406 1775.691406 C 773.320312 1785.285156 778.679688 1794.746094 784.269531 1804.074219 C 789.863281 1813.40625 795.679688 1822.589844 801.722656 1831.636719 C 807.765625 1840.679688 814.027344 1849.570312 820.503906 1858.304688 C 826.984375 1867.042969 833.675781 1875.613281 840.574219 1884.023438 C 847.476562 1892.429688 854.578125 1900.664062 861.882812 1908.722656 C 869.1875 1916.78125 876.683594 1924.65625 884.375 1932.347656 C 892.066406 1940.039062 899.941406 1947.539062 908 1954.84375 C 916.0625 1962.148438 924.292969 1969.25 932.703125 1976.148438 C 941.109375 1983.050781 949.683594 1989.742188 958.417969 1996.21875 C 967.15625 2002.699219 976.046875 2008.960938 985.089844 2015.003906 C 994.132812 2021.046875 1003.320312 2026.863281 1012.648438 2032.457031 C 1021.980469 2038.046875 1031.441406 2043.40625 1041.035156 2048.535156 C 1050.625 2053.660156 1060.339844 2058.550781 1070.171875 2063.199219 C 1080.003906 2067.851562 1089.945312 2072.257812 1099.992188 2076.421875 C 1110.042969 2080.582031 1120.1875 2084.496094 1130.429688 2088.160156 C 1140.671875 2091.824219 1150.996094 2095.234375 1161.402344 2098.394531 C 1171.8125 2101.550781 1182.292969 2104.449219 1192.84375 2107.09375 C 1203.394531 2109.738281 1214.003906 2112.121094 1224.671875 2114.242188 C 1235.339844 2116.363281 1246.054688 2118.222656 1256.8125 2119.816406 C 1267.570312 2121.414062 1278.363281 2122.746094 1289.1875 2123.8125 C 1300.011719 2124.878906 1310.855469 2125.675781 1321.722656 2126.210938 C 1332.585938 2126.746094 1343.457031 2127.011719 1354.332031 2127.011719 C 1365.210938 2127.011719 1376.078125 2126.746094 1386.945312 2126.210938 C 1397.808594 2125.675781 1408.652344 2124.878906 1419.476562 2123.8125 C 1430.300781 2122.746094 1441.09375 2121.414062 1451.851562 2119.816406 C 1462.609375 2118.222656 1473.324219 2116.363281 1483.992188 2114.242188 C 1494.660156 2112.121094 1505.269531 2109.738281 1515.820312 2107.09375 C 1526.371094 2104.449219 1536.851562 2101.550781 1547.261719 2098.394531 C 1557.667969 2095.234375 1567.996094 2091.824219 1578.234375 2088.160156 C 1588.476562 2084.496094 1598.621094 2080.582031 1608.671875 2076.421875 C 1618.71875 2072.257812 1628.660156 2067.851562 1638.492188 2063.199219 C 1648.324219 2058.550781 1658.039062 2053.660156 1667.632812 2048.535156 C 1677.222656 2043.40625 1686.683594 2038.046875 1696.015625 2032.457031 C 1705.34375 2026.863281 1714.53125 2021.046875 1723.574219 2015.003906 C 1732.617188 2008.960938 1741.507812 2002.699219 1750.246094 1996.21875 C 1758.980469 1989.742188 1767.554688 1983.050781 1775.960938 1976.148438 C 1784.371094 1969.25 1792.601562 1962.148438 1800.664062 1954.84375 C 1808.722656 1947.539062 1816.597656 1940.039062 1824.289062 1932.347656 C 1831.980469 1924.65625 1839.476562 1916.78125 1846.78125 1908.722656 C 1854.085938 1900.664062 1861.1875 1892.429688 1868.089844 1884.023438 C 1874.988281 1875.613281 1881.679688 1867.042969 1888.160156 1858.304688 C 1894.636719 1849.570312 1900.898438 1840.679688 1906.941406 1831.636719 C 1912.984375 1822.589844 1918.800781 1813.40625 1924.394531 1804.074219 C 1929.984375 1794.746094 1935.347656 1785.285156 1940.472656 1775.691406 C 1945.601562 1766.097656 1950.488281 1756.386719 1955.140625 1746.554688 C 1959.789062 1736.722656 1964.195312 1726.78125 1968.359375 1716.730469 C 1972.523438 1706.683594 1976.433594 1696.539062 1980.101562 1686.296875 C 1983.765625 1676.054688 1987.175781 1665.730469 1990.332031 1655.320312 C 1993.488281 1644.914062 1996.390625 1634.433594 1999.03125 1623.882812 C 2001.675781 1613.332031 2004.058594 1602.722656 2006.179688 1592.054688 C 2008.300781 1581.386719 2010.160156 1570.671875 2011.757812 1559.914062 C 2013.351562 1549.152344 2014.683594 1538.363281 2015.75 1527.539062 C 2016.816406 1516.710938 2017.617188 1505.867188 2018.148438 1495.003906 C 2018.683594 1484.140625 2018.949219 1473.269531 2018.949219 1462.394531 C 2018.949219 1451.515625 2018.683594 1440.644531 2018.148438 1429.78125 C 2017.617188 1418.917969 2016.816406 1408.074219 2015.75 1397.25 C 2014.683594 1386.425781 2013.351562 1375.632812 2011.757812 1364.875 C 2010.160156 1354.113281 2008.300781 1343.402344 2006.179688 1332.734375 C 2004.058594 1322.066406 2001.675781 1311.457031 1999.03125 1300.902344 C 1996.390625 1290.351562 1993.488281 1279.875 1990.332031 1269.464844 C 1987.175781 1259.054688 1983.765625 1248.730469 1980.097656 1238.488281 C 1976.433594 1228.25 1972.523438 1218.105469 1968.359375 1208.054688 C 1964.195312 1198.003906 1959.789062 1188.066406 1955.140625 1178.230469 C 1950.488281 1168.398438 1945.601562 1158.6875 1940.472656 1149.09375 C 1935.347656 1139.5 1929.984375 1130.039062 1924.394531 1120.710938 C 1918.800781 1111.382812 1912.984375 1102.195312 1906.941406 1093.152344 C 1900.898438 1084.105469 1894.636719 1075.21875 1888.160156 1066.480469 C 1881.679688 1057.742188 1874.988281 1049.171875 1868.089844 1040.765625 C 1861.1875 1032.355469 1854.085938 1024.121094 1846.78125 1016.0625 C 1839.476562 1008.003906 1831.980469 1000.128906 1824.289062 992.4375 C 1816.597656 984.746094 1808.722656 977.246094 1800.664062 969.945312 C 1792.601562 962.640625 1784.371094 955.535156 1775.960938 948.636719 C 1767.554688 941.734375 1758.980469 935.046875 1750.246094 928.566406 C 1741.507812 922.085938 1732.617188 915.824219 1723.574219 909.78125 C 1714.53125 903.742188 1705.34375 897.921875 1696.015625 892.332031 C 1686.683594 886.738281 1677.222656 881.378906 1667.632812 876.253906 C 1658.039062 871.125 1648.324219 866.234375 1638.492188 861.585938 C 1628.660156 856.933594 1618.71875 852.527344 1608.671875 848.367188 C 1598.621094 844.203125 1588.476562 840.289062 1578.234375 836.625 C 1567.996094 832.960938 1557.667969 829.550781 1547.261719 826.394531 C 1536.851562 823.234375 1526.371094 820.335938 1515.820312 817.691406 C 1505.269531 815.050781 1494.660156 812.667969 1483.992188 810.546875 C 1473.324219 808.421875 1462.609375 806.5625 1451.851562 804.96875 C 1441.09375 803.371094 1430.300781 802.042969 1419.476562 800.976562 C 1408.652344 799.910156 1397.808594 799.109375 1386.945312 798.574219 C 1376.078125 798.042969 1365.210938 797.773438 1354.332031 797.773438 Z M 1354.332031 797.773438 "/><g style="fill:rgb(92.158508%,95.689392%,93.328857%);fill-opacity:1;"><g transform="translate(3327.681398, 1245.232593)"><path style="stroke:none;" d="M 77.585938 -96.179688 L 64.921875 -96.179688 L 38.953125 -56.265625 L 12.984375 -96.179688 L 0.160156 -96.179688 L 33.824219 -45.523438 L 33.824219 0 L 44.082031 0 L 44.082031 -45.683594 Z M 77.585938 -96.179688 "/></g></g><g style="fill:rgb(92.158508%,95.689392%,93.328857%);fill-opacity:1;"><g transform="translate(3405.424393, 1245.232593)"><path style="stroke:none;" d="M 57.226562 1.28125 C 84.636719 1.28125 106.597656 -20.839844 106.597656 -48.089844 C 106.597656 -75.339844 84.636719 -97.460938 57.226562 -97.460938 C 29.976562 -97.460938 7.855469 -75.339844 7.855469 -48.089844 C 7.855469 -20.839844 29.976562 1.28125 57.226562 1.28125 Z M 57.226562 -8.976562 C 35.585938 -8.976562 18.113281 -26.289062 18.113281 -48.089844 C 18.113281 -69.890625 35.585938 -87.203125 57.226562 -87.203125 C 79.027344 -87.203125 96.339844 -69.890625 96.339844 -48.089844 C 96.339844 -26.289062 79.027344 -8.976562 57.226562 -8.976562 Z M 57.226562 -8.976562 "/></g></g><g style="fill:rgb(92.158508%,95.689392%,93.328857%);fill-opacity:1;"><g transform="translate(3520.035196, 1245.232593)"><path style="stroke:none;" d="M 47.289062 1.28125 C 68.289062 1.28125 83.515625 -12.664062 83.515625 -31.578125 L 83.515625 -96.179688 L 73.257812 -96.179688 L 73.257812 -33.183594 C 73.257812 -19.234375 62.195312 -8.976562 47.289062 -8.976562 C 32.378906 -8.976562 21.480469 -19.234375 21.480469 -33.183594 L 21.480469 -96.179688 L 11.222656 -96.179688 L 11.222656 -31.578125 C 11.222656 -12.664062 26.449219 1.28125 47.289062 1.28125 Z M 47.289062 1.28125 "/></g></g><g style="fill:rgb(92.158508%,95.689392%,93.328857%);fill-opacity:1;"><g transform="translate(3614.769452, 1245.232593)"><path style="stroke:none;" d=""/></g></g><g style="fill:rgb(92.158508%,95.689392%,93.328857%);fill-opacity:1;"><g transform="translate(3653.400498, 1245.232593)"><path style="stroke:none;" d="M 120.0625 -96.179688 L 95.378906 -17.152344 L 71.972656 -96.179688 L 57.546875 -96.179688 L 34.464844 -17.3125 L 9.9375 -96.179688 L -0.960938 -96.179688 L 29.175781 0 L 40.074219 0 L 64.761719 -85.277344 L 89.925781 0 L 100.667969 0 L 130.644531 -96.179688 Z M 120.0625 -96.179688 "/></g></g><g style="fill:rgb(92.158508%,95.689392%,93.328857%);fill-opacity:1;"><g transform="translate(3783.079022, 1245.232593)"><path style="stroke:none;" d="M 12.503906 0 L 22.761719 0 L 22.761719 -96.179688 L 12.503906 -96.179688 Z M 12.503906 0 "/></g></g><g style="fill:rgb(92.158508%,95.689392%,93.328857%);fill-opacity:1;"><g transform="translate(3818.183566, 1245.232593)"><path style="stroke:none;" d="M 21.960938 -10.257812 L 21.960938 -96.179688 L 11.703125 -96.179688 L 11.703125 0 L 57.707031 0 L 57.707031 -10.257812 Z M 21.960938 -10.257812 "/></g></g><g style="fill:rgb(92.158508%,95.689392%,93.328857%);fill-opacity:1;"><g transform="translate(3877.332375, 1245.232593)"><path style="stroke:none;" d="M 21.960938 -10.257812 L 21.960938 -96.179688 L 11.703125 -96.179688 L 11.703125 0 L 57.707031 0 L 57.707031 -10.257812 Z M 21.960938 -10.257812 "/></g></g><g style="fill:rgb(92.158508%,95.689392%,93.328857%);fill-opacity:1;"><g transform="translate(3936.481184, 1245.232593)"><path style="stroke:none;" d=""/></g></g><g style="fill:rgb(92.158508%,95.689392%,93.328857%);fill-opacity:1;"><g transform="translate(3975.11223, 1245.232593)"><path style="stroke:none;" d="M 57.546875 -50.976562 L 57.546875 -41.355469 L 96.179688 -41.355469 C 93.132812 -22.761719 77.105469 -8.976562 57.707031 -8.976562 C 36.066406 -8.976562 18.59375 -26.289062 18.59375 -48.089844 C 18.59375 -69.890625 36.066406 -87.203125 57.707031 -87.203125 C 72.292969 -87.203125 85.117188 -79.347656 91.691406 -67.484375 L 100.507812 -72.453125 C 92.171875 -87.363281 76.140625 -97.460938 57.707031 -97.460938 C 30.296875 -97.460938 8.335938 -75.339844 8.335938 -48.089844 C 8.335938 -20.839844 30.296875 1.28125 57.707031 1.28125 C 84.957031 1.28125 107.078125 -20.839844 107.078125 -48.089844 L 107.078125 -50.976562 Z M 57.546875 -50.976562 "/></g></g><g style="fill:rgb(92.158508%,95.689392%,93.328857%);fill-opacity:1;"><g transform="translate(4090.364213, 1245.232593)"><path style="stroke:none;" d="M 57.226562 1.28125 C 84.636719 1.28125 106.597656 -20.839844 106.597656 -48.089844 C 106.597656 -75.339844 84.636719 -97.460938 57.226562 -97.460938 C 29.976562 -97.460938 7.855469 -75.339844 7.855469 -48.089844 C 7.855469 -20.839844 29.976562 1.28125 57.226562 1.28125 Z M 57.226562 -8.976562 C 35.585938 -8.976562 18.113281 -26.289062 18.113281 -48.089844 C 18.113281 -69.890625 35.585938 -87.203125 57.226562 -87.203125 C 79.027344 -87.203125 96.339844 -69.890625 96.339844 -48.089844 C 96.339844 -26.289062 79.027344 -8.976562 57.226562 -8.976562 Z M 57.226562 -8.976562 "/></g></g><g style="fill:rgb(92.158508%,95.689392%,93.328857%);fill-opacity:1;"><g transform="translate(4204.97504, 1245.232593)"><path style="stroke:none;" d="M 64.921875 -96.179688 L 1.441406 -96.179688 L 1.441406 -85.921875 L 28.050781 -85.921875 L 28.050781 0 L 38.3125 0 L 38.3125 -85.921875 L 64.921875 -85.921875 Z M 64.921875 -96.179688 "/></g></g><g style="fill:rgb(92.158508%,95.689392%,93.328857%);fill-opacity:1;"><g transform="translate(3391.643014, 1424.517484)"><path style="stroke:none;" d="M 75.019531 -96.179688 L 75.019531 -53.21875 L 21.960938 -53.21875 L 21.960938 -96.179688 L 11.703125 -96.179688 L 11.703125 0 L 21.960938 0 L 21.960938 -42.960938 L 75.019531 -42.960938 L 75.019531 0 L 85.277344 0 L 85.277344 -96.179688 Z M 75.019531 -96.179688 "/></g></g><g style="fill:rgb(92.158508%,95.689392%,93.328857%);fill-opacity:1;"><g transform="translate(3488.621389, 1424.517484)"><path style="stroke:none;" d="M 12.503906 0 L 22.761719 0 L 22.761719 -96.179688 L 12.503906 -96.179688 Z M 12.503906 0 "/></g></g><g style="fill:rgb(92.158508%,95.689392%,93.328857%);fill-opacity:1;"><g transform="translate(3523.725957, 1424.517484)"><path style="stroke:none;" d="M 57.546875 -50.976562 L 57.546875 -41.355469 L 96.179688 -41.355469 C 93.132812 -22.761719 77.105469 -8.976562 57.707031 -8.976562 C 36.066406 -8.976562 18.59375 -26.289062 18.59375 -48.089844 C 18.59375 -69.890625 36.066406 -87.203125 57.707031 -87.203125 C 72.292969 -87.203125 85.117188 -79.347656 91.691406 -67.484375 L 100.507812 -72.453125 C 92.171875 -87.363281 76.140625 -97.460938 57.707031 -97.460938 C 30.296875 -97.460938 8.335938 -75.339844 8.335938 -48.089844 C 8.335938 -20.839844 30.296875 1.28125 57.707031 1.28125 C 84.957031 1.28125 107.078125 -20.839844 107.078125 -48.089844 L 107.078125 -50.976562 Z M 57.546875 -50.976562 "/></g></g><g style="fill:rgb(92.158508%,95.689392%,93.328857%);fill-opacity:1;"><g transform="translate(3638.977951, 1424.517484)"><path style="stroke:none;" d="M 75.019531 -96.179688 L 75.019531 -53.21875 L 21.960938 -53.21875 L 21.960938 -96.179688 L 11.703125 -96.179688 L 11.703125 0 L 21.960938 0 L 21.960938 -42.960938 L 75.019531 -42.960938 L 75.019531 0 L 85.277344 0 L 85.277344 -96.179688 Z M 75.019531 -96.179688 "/></g></g><g style="fill:rgb(92.158508%,95.689392%,93.328857%);fill-opacity:1;"><g transform="translate(3735.956314, 1424.517484)"><path style="stroke:none;" d=""/></g></g><g style="fill:rgb(92.158508%,95.689392%,93.328857%);fill-opacity:1;"><g transform="translate(3774.58736, 1424.517484)"><path style="stroke:none;" d="M 96.5 -96.179688 L 59.46875 -12.34375 L 22.601562 -96.179688 L 11.703125 -96.179688 L 11.703125 0 L 21.960938 0 L 21.960938 -75.980469 L 55.144531 0 L 63.636719 0 L 97.140625 -75.660156 L 97.140625 0 L 107.238281 0 L 107.238281 -96.179688 Z M 96.5 -96.179688 "/></g></g><g style="fill:rgb(92.158508%,95.689392%,93.328857%);fill-opacity:1;"><g transform="translate(3893.526134, 1424.517484)"><path style="stroke:none;" d="M 69.730469 0 L 80.949219 0 L 46.164062 -96.179688 L 34.785156 -96.179688 L 0 0 L 11.222656 0 L 19.074219 -22.441406 L 61.875 -22.441406 Z M 22.441406 -32.21875 L 40.554688 -83.996094 L 58.507812 -32.21875 Z M 22.441406 -32.21875 "/></g></g><g style="fill:rgb(92.158508%,95.689392%,93.328857%);fill-opacity:1;"><g transform="translate(3974.475018, 1424.517484)"><path style="stroke:none;" d="M 50.652344 -43.921875 C 63.316406 -45.683594 72.9375 -56.265625 72.9375 -69.25 C 72.9375 -84.316406 60.914062 -96.179688 46.164062 -96.179688 L 11.703125 -96.179688 L 11.703125 0 L 21.960938 0 L 21.960938 -43.441406 L 40.074219 -43.441406 L 67.324219 0 L 79.027344 0 Z M 21.960938 -53.21875 L 21.960938 -85.921875 L 45.523438 -85.921875 C 55.144531 -85.921875 62.675781 -79.1875 62.675781 -69.570312 C 62.675781 -59.792969 55.304688 -53.21875 45.523438 -53.21875 Z M 21.960938 -53.21875 "/></g></g><g style="fill:rgb(92.158508%,95.689392%,93.328857%);fill-opacity:1;"><g transform="translate(4054.943035, 1424.517484)"><path style="stroke:none;" d="M 69.089844 0 L 83.355469 0 L 37.671875 -51.777344 L 81.59375 -96.179688 L 67.324219 -96.179688 L 28.695312 -56.746094 L 21.960938 -56.746094 L 21.960938 -96.179688 L 11.703125 -96.179688 L 11.703125 0 L 21.960938 0 L 21.960938 -47.128906 L 28.855469 -47.128906 Z M 69.089844 0 "/></g></g><g style="fill:rgb(92.158508%,95.689392%,93.328857%);fill-opacity:1;"><g transform="translate(4137.174279, 1424.517484)"><path style="stroke:none;" d="M 35.90625 1.28125 C 52.257812 1.28125 65.5625 -8.496094 65.5625 -25.328125 C 65.5625 -58.027344 18.753906 -50.011719 18.753906 -72.9375 C 18.753906 -82.554688 26.609375 -87.203125 35.585938 -87.203125 C 42.960938 -87.203125 49.050781 -84.15625 52.898438 -78.707031 L 60.914062 -85.4375 C 55.625 -92.171875 46.328125 -97.460938 35.265625 -97.460938 C 20.519531 -97.460938 8.496094 -87.84375 8.496094 -72.132812 C 8.496094 -41.195312 55.304688 -48.890625 55.304688 -25.007812 C 55.304688 -14.746094 46.808594 -8.976562 36.066406 -8.976562 C 25.167969 -8.976562 17.3125 -14.90625 13.945312 -23.722656 L 4.648438 -18.273438 C 9.617188 -6.410156 21.640625 1.28125 35.90625 1.28125 Z M 35.90625 1.28125 "/></g></g><g style="fill:rgb(100%,100%,100%);fill-opacity:1;"><g transform="translate(1036.348127, 1201.054249)"><path style="stroke:none;" d="M 95.519531 -218.328125 C 52.070312 -217.96875 15.082031 -185.652344 15.082031 -142.558594 C 15.082031 -104.136719 44.886719 -72.535156 82.230469 -67.507812 C 84.746094 -67.148438 87.257812 -67.148438 89.773438 -67.148438 L 37.703125 0 L 90.132812 0 L 159.078125 -95.160156 C 168.414062 -109.164062 175.957031 -124.964844 175.957031 -142.558594 C 175.957031 -185.292969 139.6875 -218.328125 95.519531 -218.328125 Z M 95.519531 -105.933594 C 73.972656 -106.292969 59.96875 -122.089844 59.609375 -142.917969 C 59.609375 -163.027344 73.972656 -178.828125 95.519531 -178.828125 C 116.707031 -179.1875 130.710938 -163.027344 130.710938 -142.917969 C 131.070312 -122.089844 117.0625 -105.933594 95.519531 -105.933594 Z M 95.519531 -105.933594 "/></g></g><g style="fill:rgb(100%,100%,100%);fill-opacity:1;"><g transform="translate(1227.026187, 1201.054249)"><path style="stroke:none;" d="M 98.390625 2.871094 C 151.539062 2.871094 178.828125 -42.015625 178.828125 -107.726562 C 178.828125 -173.441406 151.539062 -218.328125 98.390625 -218.328125 C 44.527344 -218.328125 17.59375 -173.441406 17.59375 -107.726562 C 17.59375 -42.015625 44.527344 2.871094 98.390625 2.871094 Z M 98.390625 -37.703125 C 72.175781 -37.703125 63.558594 -65.714844 63.558594 -107.726562 C 63.558594 -149.742188 72.175781 -177.75 98.390625 -177.75 C 124.246094 -177.75 132.863281 -149.742188 132.863281 -107.726562 C 132.863281 -65.714844 124.246094 -37.703125 98.390625 -37.703125 Z M 98.390625 -37.703125 "/></g></g><g style="fill:rgb(100%,100%,100%);fill-opacity:1;"><g transform="translate(1423.808827, 1201.054249)"><path style="stroke:none;" d="M 62.480469 -112.394531 C 88.335938 -112.394531 109.164062 -136.097656 109.164062 -165.183594 C 109.164062 -194.628906 88.335938 -218.328125 62.480469 -218.328125 C 36.269531 -218.328125 15.082031 -194.628906 15.082031 -165.183594 C 15.082031 -136.097656 36.269531 -112.394531 62.480469 -112.394531 Z M 28.007812 0 L 75.050781 0 L 219.765625 -215.457031 L 172.363281 -215.457031 Z M 62.480469 -146.511719 C 55.660156 -146.511719 49.554688 -154.769531 49.554688 -165.183594 C 49.554688 -175.957031 55.660156 -184.214844 62.480469 -184.214844 C 68.585938 -184.214844 75.050781 -175.957031 75.050781 -165.183594 C 75.050781 -154.769531 68.585938 -146.511719 62.480469 -146.511719 Z M 185.652344 2.871094 C 211.863281 2.871094 232.691406 -20.828125 232.691406 -50.273438 C 232.691406 -79.359375 211.863281 -103.058594 185.652344 -103.058594 C 159.4375 -103.058594 138.609375 -79.359375 138.609375 -50.273438 C 138.609375 -20.828125 159.4375 2.871094 185.652344 2.871094 Z M 185.652344 -31.242188 C 179.1875 -31.242188 173.082031 -39.5 173.082031 -50.273438 C 173.082031 -60.6875 179.1875 -68.945312 185.652344 -68.945312 C 192.113281 -68.945312 198.578125 -60.6875 198.578125 -50.273438 C 198.578125 -39.5 192.113281 -31.242188 185.652344 -31.242188 Z M 185.652344 -31.242188 "/></g></g><g style="fill:rgb(100%,100%,100%);fill-opacity:1;"><g transform="translate(999.729443, 1516.682466)"><path style="stroke:none;" d="M 112.753906 -215.457031 L 21.1875 -215.457031 L 21.1875 0 L 68.585938 0 L 68.585938 -87.257812 L 112.753906 -87.257812 C 149.023438 -87.257812 177.03125 -114.191406 177.03125 -150.460938 C 177.03125 -186.367188 149.023438 -215.457031 112.753906 -215.457031 Z M 105.214844 -126.402344 L 68.585938 -126.402344 L 68.585938 -173.800781 L 105.214844 -173.800781 C 120.296875 -173.800781 131.785156 -164.105469 131.785156 -150.101562 C 131.785156 -135.738281 120.296875 -126.402344 105.214844 -126.402344 Z M 105.214844 -126.402344 "/></g></g><g style="fill:rgb(100%,100%,100%);fill-opacity:1;"><g transform="translate(1178.198345, 1516.682466)"><path style="stroke:none;" d="M 68.585938 -42.015625 L 68.585938 -215.457031 L 21.1875 -215.457031 L 21.1875 0 L 140.046875 0 L 140.046875 -42.015625 Z M 68.585938 -42.015625 "/></g></g><g style="fill:rgb(100%,100%,100%);fill-opacity:1;"><g transform="translate(1318.962532, 1516.682466)"><path style="stroke:none;" d="M 109.523438 2.871094 C 160.515625 2.871094 199.296875 -28.367188 199.296875 -68.945312 L 199.296875 -215.457031 L 151.894531 -215.457031 L 151.894531 -77.921875 C 151.894531 -56.019531 133.582031 -39.140625 109.523438 -39.140625 C 85.824219 -39.140625 67.507812 -56.019531 67.507812 -77.921875 L 67.507812 -215.457031 L 20.109375 -215.457031 L 20.109375 -68.945312 C 20.109375 -28.367188 59.25 2.871094 109.523438 2.871094 Z M 109.523438 2.871094 "/></g></g><g style="fill:rgb(100%,100%,100%);fill-opacity:1;"><g transform="translate(1538.367955, 1516.682466)"><path style="stroke:none;" d="M 87.617188 2.871094 C 127.835938 2.871094 161.949219 -20.828125 161.949219 -61.046875 C 161.949219 -140.765625 62.839844 -121.015625 62.839844 -158.359375 C 62.839844 -170.570312 72.175781 -176.316406 83.667969 -176.316406 C 95.878906 -176.316406 108.085938 -169.492188 118.859375 -157.640625 L 150.460938 -187.804688 C 134.660156 -206.121094 110.601562 -218.328125 84.027344 -218.328125 C 49.914062 -218.328125 15.082031 -197.859375 15.082031 -154.769531 C 15.082031 -81.515625 114.550781 -99.109375 114.550781 -61.40625 C 114.550781 -49.554688 104.496094 -41.65625 87.976562 -41.65625 C 68.226562 -41.65625 52.785156 -52.785156 44.886719 -69.664062 L 5.746094 -45.246094 C 19.75 -18.3125 49.914062 2.871094 87.617188 2.871094 Z M 87.617188 2.871094 "/></g></g><g style="fill:rgb(100%,100%,100%);fill-opacity:1;"><g transform="translate(827.178833, 1832.310682)"><path style="stroke:none;" d="M 208.992188 -215.457031 L 140.40625 -66.433594 L 72.535156 -215.457031 L 21.1875 -215.457031 L 21.1875 0 L 68.585938 0 L 68.585938 -128.554688 L 126.757812 0 L 154.050781 0 L 212.582031 -128.195312 L 212.582031 0 L 259.984375 0 L 259.984375 -215.457031 Z M 208.992188 -215.457031 "/></g></g><g style="fill:rgb(100%,100%,100%);fill-opacity:1;"><g transform="translate(1108.348133, 1832.310682)"><path style="stroke:none;" d="M 152.972656 0 L 203.605469 0 L 126.042969 -215.457031 L 72.894531 -215.457031 L -4.667969 0 L 45.964844 0 L 59.25 -40.578125 L 139.6875 -40.578125 Z M 71.820312 -80.078125 L 99.46875 -165.542969 L 127.117188 -80.078125 Z M 71.820312 -80.078125 "/></g></g><g style="fill:rgb(100%,100%,100%);fill-opacity:1;"><g transform="translate(1307.285322, 1832.310682)"><path style="stroke:none;" d="M 133.582031 -88.695312 C 159.078125 -96.238281 177.03125 -119.9375 177.03125 -149.382812 C 177.03125 -186.011719 149.742188 -215.457031 112.753906 -215.457031 L 21.1875 -215.457031 L 21.1875 0 L 68.585938 0 L 68.585938 -83.308594 L 87.617188 -83.308594 L 140.765625 0 L 193.910156 0 Z M 105.574219 -122.449219 L 68.585938 -122.449219 L 68.585938 -173.441406 L 105.574219 -173.441406 C 120.65625 -173.441406 131.785156 -162.667969 131.785156 -147.945312 C 131.785156 -132.863281 120.65625 -122.449219 105.574219 -122.449219 Z M 105.574219 -122.449219 "/></g></g><g style="fill:rgb(100%,100%,100%);fill-opacity:1;"><g transform="translate(1499.399746, 1832.310682)"><path style="stroke:none;" d="M 155.847656 0 L 219.046875 0 L 115.269531 -119.578125 L 208.273438 -215.457031 L 147.226562 -215.457031 L 76.847656 -139.328125 L 68.585938 -139.328125 L 68.585938 -215.457031 L 21.1875 -215.457031 L 21.1875 0 L 68.585938 0 L 68.585938 -98.390625 L 75.410156 -98.390625 Z M 155.847656 0 "/></g></g><g style="fill:rgb(100%,100%,100%);fill-opacity:1;"><g transform="translate(1710.905115, 1832.310682)"><path style="stroke:none;" d="M 87.617188 2.871094 C 127.835938 2.871094 161.949219 -20.828125 161.949219 -61.046875 C 161.949219 -140.765625 62.839844 -121.015625 62.839844 -158.359375 C 62.839844 -170.570312 72.175781 -176.316406 83.667969 -176.316406 C 95.878906 -176.316406 108.085938 -169.492188 118.859375 -157.640625 L 150.460938 -187.804688 C 134.660156 -206.121094 110.601562 -218.328125 84.027344 -218.328125 C 49.914062 -218.328125 15.082031 -197.859375 15.082031 -154.769531 C 15.082031 -81.515625 114.550781 -99.109375 114.550781 -61.40625 C 114.550781 -49.554688 104.496094 -41.65625 87.976562 -41.65625 C 68.226562 -41.65625 52.785156 -52.785156 44.886719 -69.664062 L 5.746094 -45.246094 C 19.75 -18.3125 49.914062 2.871094 87.617188 2.871094 Z M 87.617188 2.871094 "/></g></g><g style="fill:rgb(100%,100%,100%);fill-opacity:1;"><g transform="translate(572.5663, 454.195007)"><path style="stroke:none;" d="M 149.988281 0 L 186.964844 0 L 111.269531 -209.289062 L 73.25 -209.289062 L -2.441406 0 L 34.53125 0 L 49.53125 -44.300781 L 134.992188 -44.300781 Z M 59.648438 -74.296875 L 92.433594 -171.964844 L 125.222656 -74.296875 Z M 59.648438 -74.296875 "/></g></g><g style="fill:rgb(100%,100%,100%);fill-opacity:1;"><g transform="translate(757.087826, 454.195007)"><path style="stroke:none;" d="M 81.273438 2.789062 C 118.945312 2.789062 149.640625 -19.535156 149.640625 -57.207031 C 149.640625 -131.503906 50.578125 -113.363281 50.578125 -156.269531 C 50.578125 -172.660156 63.484375 -180.335938 78.832031 -180.335938 C 92.785156 -180.335938 105.339844 -174.058594 114.757812 -162.199219 L 138.828125 -184.171875 C 125.574219 -200.566406 103.597656 -212.078125 78.832031 -212.078125 C 46.042969 -212.078125 16.394531 -191.496094 16.394531 -153.828125 C 16.394531 -84.414062 115.457031 -101.503906 115.457031 -57.207031 C 115.457031 -40.113281 101.15625 -29.996094 81.621094 -29.996094 C 60.34375 -29.996094 44.300781 -41.859375 36.972656 -59.648438 L 7.675781 -41.859375 C 19.882812 -15.695312 47.789062 2.789062 81.273438 2.789062 Z M 81.273438 2.789062 "/></g></g><g style="fill:rgb(100%,100%,100%);fill-opacity:1;"><g transform="translate(915.448429, 454.195007)"><path style="stroke:none;" d="M 81.273438 2.789062 C 118.945312 2.789062 149.640625 -19.535156 149.640625 -57.207031 C 149.640625 -131.503906 50.578125 -113.363281 50.578125 -156.269531 C 50.578125 -172.660156 63.484375 -180.335938 78.832031 -180.335938 C 92.785156 -180.335938 105.339844 -174.058594 114.757812 -162.199219 L 138.828125 -184.171875 C 125.574219 -200.566406 103.597656 -212.078125 78.832031 -212.078125 C 46.042969 -212.078125 16.394531 -191.496094 16.394531 -153.828125 C 16.394531 -84.414062 115.457031 -101.503906 115.457031 -57.207031 C 115.457031 -40.113281 101.15625 -29.996094 81.621094 -29.996094 C 60.34375 -29.996094 44.300781 -41.859375 36.972656 -59.648438 L 7.675781 -41.859375 C 19.882812 -15.695312 47.789062 2.789062 81.273438 2.789062 Z M 81.273438 2.789062 "/></g></g><g style="fill:rgb(100%,100%,100%);fill-opacity:1;"><g transform="translate(1073.809054, 454.195007)"><path style="stroke:none;" d="M 24.765625 0 L 58.949219 0 L 58.949219 -209.289062 L 24.765625 -209.289062 Z M 24.765625 0 "/></g></g><g style="fill:rgb(100%,100%,100%);fill-opacity:1;"><g transform="translate(1157.175112, 454.195007)"><path style="stroke:none;" d="M 122.78125 -113.015625 L 122.78125 -84.414062 L 193.941406 -84.414062 C 185.566406 -53.019531 157.3125 -31.042969 123.128906 -31.042969 C 81.621094 -31.042969 49.183594 -63.136719 49.183594 -104.644531 C 49.183594 -146.152344 81.621094 -178.242188 123.128906 -178.242188 C 151.382812 -178.242188 175.453125 -163.246094 188.011719 -140.222656 L 217.308594 -155.917969 C 199.171875 -189.40625 163.59375 -212.078125 123.128906 -212.078125 C 63.484375 -212.078125 15.695312 -163.941406 15.695312 -104.644531 C 15.695312 -45.34375 63.484375 2.789062 123.128906 2.789062 C 182.429688 2.789062 230.566406 -45.34375 230.566406 -104.644531 L 230.566406 -113.015625 Z M 122.78125 -113.015625 "/></g></g><g style="fill:rgb(100%,100%,100%);fill-opacity:1;"><g transform="translate(1403.087555, 454.195007)"><path style="stroke:none;" d="M 173.359375 -209.289062 L 173.359375 -54.066406 L 57.207031 -209.289062 L 23.023438 -209.289062 L 23.023438 0 L 57.207031 0 L 57.207031 -155.570312 L 173.011719 0 L 207.195312 0 L 207.195312 -209.289062 Z M 173.359375 -209.289062 "/></g></g><g style="fill:rgb(100%,100%,100%);fill-opacity:1;"><g transform="translate(1633.303478, 454.195007)"><path style="stroke:none;" d=""/></g></g><g style="fill:rgb(100%,100%,100%);fill-opacity:1;"><g transform="translate(1717.018309, 454.195007)"><path style="stroke:none;" d="M 24.765625 0 L 58.949219 0 L 58.949219 -209.289062 L 24.765625 -209.289062 Z M 24.765625 0 "/></g></g><g style="fill:rgb(100%,100%,100%);fill-opacity:1;"><g transform="translate(1800.384366, 454.195007)"><path style="stroke:none;" d="M 145.453125 -209.289062 L 0.699219 -209.289062 L 0.699219 -177.546875 L 56.160156 -177.546875 L 56.160156 0 L 89.992188 0 L 89.992188 -177.546875 L 145.453125 -177.546875 Z M 145.453125 -209.289062 "/></g></g><g style="fill:rgb(100%,100%,100%);fill-opacity:1;"><g transform="translate(1946.536589, 454.195007)"><path style="stroke:none;" d="M 33.136719 -65.925781 L 58.25 -65.925781 L 62.089844 -224.984375 L 29.300781 -224.984375 Z M 45.695312 2.789062 C 56.507812 2.789062 65.578125 -6.277344 65.578125 -17.09375 C 65.578125 -27.90625 56.507812 -36.625 45.695312 -36.625 C 34.882812 -36.625 26.160156 -27.90625 26.160156 -17.09375 C 26.160156 -6.277344 34.882812 2.789062 45.695312 2.789062 Z M 45.695312 2.789062 "/></g></g><g style="fill:rgb(100%,100%,100%);fill-opacity:1;"><g transform="translate(464.54938, 695.335953)"><path style="stroke:none;" d="M 73.152344 0 L 84.925781 0 L 48.433594 -100.902344 L 36.492188 -100.902344 L 0 0 L 11.773438 0 L 20.011719 -23.542969 L 64.914062 -23.542969 Z M 23.542969 -33.800781 L 42.546875 -88.121094 L 61.382812 -33.800781 Z M 23.542969 -33.800781 "/></g></g><g style="fill:rgb(100%,100%,100%);fill-opacity:1;"><g transform="translate(549.469026, 695.335953)"><path style="stroke:none;" d="M 37.671875 1.34375 C 54.824219 1.34375 68.78125 -8.914062 68.78125 -26.570312 C 68.78125 -60.878906 19.675781 -52.46875 19.675781 -76.515625 C 19.675781 -86.605469 27.917969 -91.484375 37.332031 -91.484375 C 45.070312 -91.484375 51.460938 -88.289062 55.496094 -82.570312 L 63.90625 -89.632812 C 58.355469 -96.699219 48.601562 -102.246094 36.996094 -102.246094 C 21.527344 -102.246094 8.914062 -92.15625 8.914062 -75.675781 C 8.914062 -43.21875 58.019531 -51.292969 58.019531 -26.234375 C 58.019531 -15.472656 49.105469 -9.417969 37.839844 -9.417969 C 26.402344 -9.417969 18.164062 -15.640625 14.628906 -24.890625 L 4.875 -19.171875 C 10.089844 -6.726562 22.703125 1.34375 37.671875 1.34375 Z M 37.671875 1.34375 "/></g></g><g style="fill:rgb(100%,100%,100%);fill-opacity:1;"><g transform="translate(623.122111, 695.335953)"><path style="stroke:none;" d="M 37.671875 1.34375 C 54.824219 1.34375 68.78125 -8.914062 68.78125 -26.570312 C 68.78125 -60.878906 19.675781 -52.46875 19.675781 -76.515625 C 19.675781 -86.605469 27.917969 -91.484375 37.332031 -91.484375 C 45.070312 -91.484375 51.460938 -88.289062 55.496094 -82.570312 L 63.90625 -89.632812 C 58.355469 -96.699219 48.601562 -102.246094 36.996094 -102.246094 C 21.527344 -102.246094 8.914062 -92.15625 8.914062 -75.675781 C 8.914062 -43.21875 58.019531 -51.292969 58.019531 -26.234375 C 58.019531 -15.472656 49.105469 -9.417969 37.839844 -9.417969 C 26.402344 -9.417969 18.164062 -15.640625 14.628906 -24.890625 L 4.875 -19.171875 C 10.089844 -6.726562 22.703125 1.34375 37.671875 1.34375 Z M 37.671875 1.34375 "/></g></g><g style="fill:rgb(100%,100%,100%);fill-opacity:1;"><g transform="translate(696.775207, 695.335953)"><path style="stroke:none;" d="M 13.117188 0 L 23.878906 0 L 23.878906 -100.902344 L 13.117188 -100.902344 Z M 13.117188 0 "/></g></g><g style="fill:rgb(100%,100%,100%);fill-opacity:1;"><g transform="translate(733.601749, 695.335953)"><path style="stroke:none;" d="M 60.371094 -53.476562 L 60.371094 -43.386719 L 100.902344 -43.386719 C 97.707031 -23.878906 80.890625 -9.417969 60.539062 -9.417969 C 37.839844 -9.417969 19.507812 -27.578125 19.507812 -50.449219 C 19.507812 -73.320312 37.839844 -91.484375 60.539062 -91.484375 C 75.84375 -91.484375 89.296875 -83.242188 96.191406 -70.800781 L 105.441406 -76.011719 C 96.699219 -91.652344 79.878906 -102.246094 60.539062 -102.246094 C 31.785156 -102.246094 8.746094 -79.039062 8.746094 -50.449219 C 8.746094 -21.863281 31.785156 1.34375 60.539062 1.34375 C 89.128906 1.34375 112.335938 -21.863281 112.335938 -50.449219 L 112.335938 -53.476562 Z M 60.371094 -53.476562 "/></g></g><g style="fill:rgb(100%,100%,100%);fill-opacity:1;"><g transform="translate(854.507133, 695.335953)"><path style="stroke:none;" d="M 84.757812 -100.902344 L 84.757812 -17.992188 L 22.367188 -100.902344 L 12.277344 -100.902344 L 12.277344 0 L 23.039062 0 L 23.039062 -82.90625 L 85.261719 0 L 95.351562 0 L 95.351562 -100.902344 Z M 84.757812 -100.902344 "/></g></g><g style="fill:rgb(100%,100%,100%);fill-opacity:1;"><g transform="translate(962.128053, 695.335953)"><path style="stroke:none;" d="M 101.238281 -100.902344 L 62.390625 -12.949219 L 23.710938 -100.902344 L 12.277344 -100.902344 L 12.277344 0 L 23.039062 0 L 23.039062 -79.710938 L 57.851562 0 L 66.761719 0 L 101.910156 -79.375 L 101.910156 0 L 112.503906 0 L 112.503906 -100.902344 Z M 101.238281 -100.902344 "/></g></g><g style="fill:rgb(100%,100%,100%);fill-opacity:1;"><g transform="translate(1086.901078, 695.335953)"><path style="stroke:none;" d="M 68.277344 -90.476562 L 68.277344 -100.902344 L 13.117188 -100.902344 L 13.117188 0 L 68.277344 0 L 68.277344 -10.425781 L 23.878906 -10.425781 L 23.878906 -45.238281 L 62.558594 -45.238281 L 62.558594 -55.664062 L 23.878906 -55.664062 L 23.878906 -90.476562 Z M 68.277344 -90.476562 "/></g></g><g style="fill:rgb(100%,100%,100%);fill-opacity:1;"><g transform="translate(1165.262597, 695.335953)"><path style="stroke:none;" d="M 84.757812 -100.902344 L 84.757812 -17.992188 L 22.367188 -100.902344 L 12.277344 -100.902344 L 12.277344 0 L 23.039062 0 L 23.039062 -82.90625 L 85.261719 0 L 95.351562 0 L 95.351562 -100.902344 Z M 84.757812 -100.902344 "/></g></g><g style="fill:rgb(100%,100%,100%);fill-opacity:1;"><g transform="translate(1272.883517, 695.335953)"><path style="stroke:none;" d="M 68.109375 -100.902344 L 1.511719 -100.902344 L 1.511719 -90.140625 L 29.429688 -90.140625 L 29.429688 0 L 40.191406 0 L 40.191406 -90.140625 L 68.109375 -90.140625 Z M 68.109375 -100.902344 "/></g></g><g style="fill:rgb(100%,100%,100%);fill-opacity:1;"><g transform="translate(1342.500821, 695.335953)"><path style="stroke:none;" d=""/></g></g><g style="fill:rgb(100%,100%,100%);fill-opacity:1;"><g transform="translate(1383.026841, 695.335953)"><path style="stroke:none;" d="M 37.671875 1.34375 C 54.824219 1.34375 68.78125 -8.914062 68.78125 -26.570312 C 68.78125 -60.878906 19.675781 -52.46875 19.675781 -76.515625 C 19.675781 -86.605469 27.917969 -91.484375 37.332031 -91.484375 C 45.070312 -91.484375 51.460938 -88.289062 55.496094 -82.570312 L 63.90625 -89.632812 C 58.355469 -96.699219 48.601562 -102.246094 36.996094 -102.246094 C 21.527344 -102.246094 8.914062 -92.15625 8.914062 -75.675781 C 8.914062 -43.21875 58.019531 -51.292969 58.019531 -26.234375 C 58.019531 -15.472656 49.105469 -9.417969 37.839844 -9.417969 C 26.402344 -9.417969 18.164062 -15.640625 14.628906 -24.890625 L 4.875 -19.171875 C 10.089844 -6.726562 22.703125 1.34375 37.671875 1.34375 Z M 37.671875 1.34375 "/></g></g><g style="fill:rgb(100%,100%,100%);fill-opacity:1;"><g transform="translate(1456.679879, 695.335953)"><path style="stroke:none;" d="M 60.035156 1.34375 C 88.792969 1.34375 111.832031 -21.863281 111.832031 -50.449219 C 111.832031 -79.039062 88.792969 -102.246094 60.035156 -102.246094 C 31.449219 -102.246094 8.242188 -79.039062 8.242188 -50.449219 C 8.242188 -21.863281 31.449219 1.34375 60.035156 1.34375 Z M 60.035156 -9.417969 C 37.332031 -9.417969 19.003906 -27.578125 19.003906 -50.449219 C 19.003906 -73.320312 37.332031 -91.484375 60.035156 -91.484375 C 82.90625 -91.484375 101.070312 -73.320312 101.070312 -50.449219 C 101.070312 -27.578125 82.90625 -9.417969 60.035156 -9.417969 Z M 60.035156 -9.417969 "/></g></g><g style="fill:rgb(100%,100%,100%);fill-opacity:1;"><g transform="translate(1576.912632, 695.335953)"><path style="stroke:none;" d="M 23.039062 -10.761719 L 23.039062 -100.902344 L 12.277344 -100.902344 L 12.277344 0 L 60.539062 0 L 60.539062 -10.761719 Z M 23.039062 -10.761719 "/></g></g><g style="fill:rgb(100%,100%,100%);fill-opacity:1;"><g transform="translate(1638.962818, 695.335953)"><path style="stroke:none;" d="M 49.609375 1.34375 C 71.640625 1.34375 87.617188 -13.285156 87.617188 -33.128906 L 87.617188 -100.902344 L 76.851562 -100.902344 L 76.851562 -34.8125 C 76.851562 -20.179688 65.25 -9.417969 49.609375 -9.417969 C 33.96875 -9.417969 22.535156 -20.179688 22.535156 -34.8125 L 22.535156 -100.902344 L 11.773438 -100.902344 L 11.773438 -33.128906 C 11.773438 -13.285156 27.746094 1.34375 49.609375 1.34375 Z M 49.609375 1.34375 "/></g></g><g style="fill:rgb(100%,100%,100%);fill-opacity:1;"><g transform="translate(1738.344058, 695.335953)"><path style="stroke:none;" d="M 68.109375 -100.902344 L 1.511719 -100.902344 L 1.511719 -90.140625 L 29.429688 -90.140625 L 29.429688 0 L 40.191406 0 L 40.191406 -90.140625 L 68.109375 -90.140625 Z M 68.109375 -100.902344 "/></g></g><g style="fill:rgb(100%,100%,100%);fill-opacity:1;"><g transform="translate(1807.961362, 695.335953)"><path style="stroke:none;" d="M 13.117188 0 L 23.878906 0 L 23.878906 -100.902344 L 13.117188 -100.902344 Z M 13.117188 0 "/></g></g><g style="fill:rgb(100%,100%,100%);fill-opacity:1;"><g transform="translate(1844.787882, 695.335953)"><path style="stroke:none;" d="M 60.035156 1.34375 C 88.792969 1.34375 111.832031 -21.863281 111.832031 -50.449219 C 111.832031 -79.039062 88.792969 -102.246094 60.035156 -102.246094 C 31.449219 -102.246094 8.242188 -79.039062 8.242188 -50.449219 C 8.242188 -21.863281 31.449219 1.34375 60.035156 1.34375 Z M 60.035156 -9.417969 C 37.332031 -9.417969 19.003906 -27.578125 19.003906 -50.449219 C 19.003906 -73.320312 37.332031 -91.484375 60.035156 -91.484375 C 82.90625 -91.484375 101.070312 -73.320312 101.070312 -50.449219 C 101.070312 -27.578125 82.90625 -9.417969 60.035156 -9.417969 Z M 60.035156 -9.417969 "/></g></g><g style="fill:rgb(100%,100%,100%);fill-opacity:1;"><g transform="translate(1965.020635, 695.335953)"><path style="stroke:none;" d="M 84.757812 -100.902344 L 84.757812 -17.992188 L 22.367188 -100.902344 L 12.277344 -100.902344 L 12.277344 0 L 23.039062 0 L 23.039062 -82.90625 L 85.261719 0 L 95.351562 0 L 95.351562 -100.902344 Z M 84.757812 -100.902344 "/></g></g><g style="fill:rgb(100%,100%,100%);fill-opacity:1;"><g transform="translate(2072.641555, 695.335953)"><path style="stroke:none;" d="M 37.671875 1.34375 C 54.824219 1.34375 68.78125 -8.914062 68.78125 -26.570312 C 68.78125 -60.878906 19.675781 -52.46875 19.675781 -76.515625 C 19.675781 -86.605469 27.917969 -91.484375 37.332031 -91.484375 C 45.070312 -91.484375 51.460938 -88.289062 55.496094 -82.570312 L 63.90625 -89.632812 C 58.355469 -96.699219 48.601562 -102.246094 36.996094 -102.246094 C 21.527344 -102.246094 8.914062 -92.15625 8.914062 -75.675781 C 8.914062 -43.21875 58.019531 -51.292969 58.019531 -26.234375 C 58.019531 -15.472656 49.105469 -9.417969 37.839844 -9.417969 C 26.402344 -9.417969 18.164062 -15.640625 14.628906 -24.890625 L 4.875 -19.171875 C 10.089844 -6.726562 22.703125 1.34375 37.671875 1.34375 Z M 37.671875 1.34375 "/></g></g><g clip-rule="nonzero" clip-path="url(#clip1)"><path style=" stroke:none;fill-rule:nonzero;fill:rgb(71.759033%,88.238525%,89.408875%);fill-opacity:1;" d="M 3131.777344 2623.496094 L 3799.734375 1955.535156 L 4467.691406 2623.496094 L 3799.734375 3291.453125 Z M 3131.777344 2623.496094 "/></g><path style=" stroke:none;fill-rule:nonzero;fill:rgb(71.759033%,88.238525%,89.408875%);fill-opacity:1;" d="M 3131.777344 -0.00390625 L 3799.734375 -667.964844 L 4467.691406 -0.00390625 L 3799.734375 667.953125 Z M 3131.777344 -0.00390625 "/></g></svg>